<svg width="1209" height="434" viewBox="0 0 1209 434" fill="none" xmlns="http://www.w3.org/2000/svg">
<rect width="1209" height="434" fill="white"/>
<path d="M180.571 186.388C183.355 186.388 185.815 186.616 187.951 187.072C190.087 187.504 191.995 188.08 193.675 188.8L190.543 196.216C189.223 195.712 187.867 195.352 186.475 195.136C185.083 194.896 183.703 194.776 182.335 194.776C180.079 194.776 178.459 195.184 177.475 196C176.515 196.816 176.035 198.172 176.035 200.068V205.18H188.491L187.231 213.064H176.035V241H164.731V213.064H156.703V205.18H164.731V199.636C164.731 197.116 165.331 194.86 166.531 192.868C167.731 190.876 169.507 189.304 171.859 188.152C174.211 186.976 177.115 186.388 180.571 186.388ZM199.767 241V233.368H204.807V210.328H199.767V202.768H213.483L215.571 211.372C216.939 208.084 218.679 205.636 220.791 204.028C222.927 202.42 225.531 201.616 228.603 201.616C229.899 201.616 231.051 201.724 232.059 201.94C233.067 202.132 234.015 202.408 234.903 202.768L231.447 212.164C230.751 211.972 230.055 211.828 229.359 211.732C228.663 211.636 227.895 211.588 227.055 211.588C224.559 211.588 222.363 212.608 220.467 214.648C218.595 216.688 217.167 219.28 216.183 222.424V233.368H223.743V241H199.767ZM225.651 218.752V207.592L227.343 202.768H234.903L232.779 218.752H225.651ZM259.139 201.508C263.075 201.508 266.423 202.348 269.183 204.028C271.943 205.708 274.055 208.072 275.519 211.12C276.983 214.144 277.715 217.696 277.715 221.776C277.715 226.024 276.971 229.684 275.483 232.756C274.019 235.804 271.907 238.144 269.147 239.776C266.387 241.408 263.051 242.224 259.139 242.224C255.251 242.224 251.915 241.42 249.131 239.812C246.371 238.204 244.247 235.876 242.759 232.828C241.295 229.78 240.563 226.12 240.563 221.848C240.563 217.792 241.295 214.24 242.759 211.192C244.247 208.144 246.371 205.768 249.131 204.064C251.915 202.36 255.251 201.508 259.139 201.508ZM259.139 209.896C256.811 209.896 255.083 210.856 253.955 212.776C252.851 214.672 252.299 217.696 252.299 221.848C252.299 226.072 252.851 229.132 253.955 231.028C255.083 232.924 256.811 233.872 259.139 233.872C261.467 233.872 263.183 232.924 264.287 231.028C265.415 229.132 265.979 226.048 265.979 221.776C265.979 217.648 265.415 214.636 264.287 212.74C263.183 210.844 261.467 209.896 259.139 209.896ZM314.011 201.508C315.835 201.508 317.335 201.892 318.511 202.66C319.687 203.428 320.563 204.64 321.139 206.296C321.715 207.928 322.003 210.064 322.003 212.704V241H312.247V214C312.247 212.656 312.115 211.708 311.851 211.156C311.611 210.604 311.107 210.328 310.339 210.328C309.739 210.328 309.115 210.508 308.467 210.868C307.843 211.204 307.147 211.852 306.379 212.812V241H298.387V214C298.387 212.656 298.255 211.708 297.991 211.156C297.751 210.604 297.247 210.328 296.479 210.328C295.879 210.328 295.255 210.508 294.607 210.868C293.983 211.204 293.287 211.852 292.519 212.812V241H282.619V202.768H290.971L291.727 206.476C292.927 204.844 294.139 203.608 295.363 202.768C296.587 201.928 298.039 201.508 299.719 201.508C301.159 201.508 302.383 201.88 303.391 202.624C304.423 203.344 305.155 204.484 305.587 206.044C306.739 204.7 308.011 203.608 309.403 202.768C310.795 201.928 312.331 201.508 314.011 201.508ZM740.834 202.768V233.224H750.554V241H718.622V233.224H729.458V210.544H718.982V202.768H740.834ZM733.958 182.752C735.926 182.752 737.534 183.364 738.782 184.588C740.03 185.812 740.654 187.336 740.654 189.16C740.654 190.984 740.03 192.52 738.782 193.768C737.534 194.992 735.926 195.604 733.958 195.604C731.966 195.604 730.334 194.992 729.062 193.768C727.814 192.52 727.19 190.984 727.19 189.16C727.19 187.336 727.814 185.812 729.062 184.588C730.334 183.364 731.966 182.752 733.958 182.752ZM788.902 201.508C790.726 201.508 792.226 201.892 793.402 202.66C794.578 203.428 795.454 204.64 796.03 206.296C796.606 207.928 796.894 210.064 796.894 212.704V241H787.138V214C787.138 212.656 787.006 211.708 786.742 211.156C786.502 210.604 785.998 210.328 785.23 210.328C784.63 210.328 784.006 210.508 783.358 210.868C782.734 211.204 782.038 211.852 781.27 212.812V241H773.278V214C773.278 212.656 773.146 211.708 772.882 211.156C772.642 210.604 772.138 210.328 771.37 210.328C770.77 210.328 770.146 210.508 769.498 210.868C768.874 211.204 768.178 211.852 767.41 212.812V241H757.51V202.768H765.862L766.618 206.476C767.818 204.844 769.03 203.608 770.254 202.768C771.478 201.928 772.93 201.508 774.61 201.508C776.05 201.508 777.274 201.88 778.282 202.624C779.314 203.344 780.046 204.484 780.478 206.044C781.63 204.7 782.902 203.608 784.294 202.768C785.686 201.928 787.222 201.508 788.902 201.508ZM824.981 201.508C828.317 201.508 831.005 202.336 833.045 203.992C835.085 205.648 836.573 207.988 837.509 211.012C838.469 214.036 838.949 217.624 838.949 221.776C838.949 225.712 838.373 229.228 837.221 232.324C836.069 235.396 834.401 237.82 832.217 239.596C830.033 241.348 827.381 242.224 824.261 242.224C820.541 242.224 817.517 240.892 815.189 238.228V255.76L803.813 256.948V202.768H813.893L814.397 207.052C815.957 205.06 817.661 203.644 819.509 202.804C821.357 201.94 823.181 201.508 824.981 201.508ZM821.453 209.896C820.133 209.896 818.969 210.292 817.961 211.084C816.953 211.876 816.029 212.956 815.189 214.324V230.452C815.981 231.628 816.809 232.492 817.673 233.044C818.561 233.596 819.605 233.872 820.805 233.872C822.821 233.872 824.393 232.96 825.521 231.136C826.649 229.288 827.213 226.216 827.213 221.92C827.213 218.752 826.985 216.304 826.529 214.576C826.073 212.824 825.413 211.612 824.549 210.94C823.685 210.244 822.653 209.896 821.453 209.896ZM863.545 201.508C867.481 201.508 870.829 202.348 873.589 204.028C876.349 205.708 878.461 208.072 879.925 211.12C881.389 214.144 882.121 217.696 882.121 221.776C882.121 226.024 881.377 229.684 879.889 232.756C878.425 235.804 876.313 238.144 873.553 239.776C870.793 241.408 867.457 242.224 863.545 242.224C859.657 242.224 856.321 241.42 853.537 239.812C850.777 238.204 848.653 235.876 847.165 232.828C845.701 229.78 844.969 226.12 844.969 221.848C844.969 217.792 845.701 214.24 847.165 211.192C848.653 208.144 850.777 205.768 853.537 204.064C856.321 202.36 859.657 201.508 863.545 201.508ZM863.545 209.896C861.217 209.896 859.489 210.856 858.361 212.776C857.257 214.672 856.705 217.696 856.705 221.848C856.705 226.072 857.257 229.132 858.361 231.028C859.489 232.924 861.217 233.872 863.545 233.872C865.873 233.872 867.589 232.924 868.693 231.028C869.821 229.132 870.385 226.048 870.385 221.776C870.385 217.648 869.821 214.636 868.693 212.74C867.589 210.844 865.873 209.896 863.545 209.896ZM890.517 241V233.368H895.557V210.328H890.517V202.768H904.233L906.321 211.372C907.689 208.084 909.429 205.636 911.541 204.028C913.677 202.42 916.281 201.616 919.353 201.616C920.649 201.616 921.801 201.724 922.809 201.94C923.817 202.132 924.765 202.408 925.653 202.768L922.197 212.164C921.501 211.972 920.805 211.828 920.109 211.732C919.413 211.636 918.645 211.588 917.805 211.588C915.309 211.588 913.113 212.608 911.217 214.648C909.345 216.688 907.917 219.28 906.933 222.424V233.368H914.493V241H890.517ZM916.401 218.752V207.592L918.093 202.768H925.653L923.529 218.752H916.401ZM967.745 238.768C966.257 239.728 964.457 240.544 962.345 241.216C960.233 241.888 957.857 242.224 955.217 242.224C950.225 242.224 946.517 240.952 944.093 238.408C941.669 235.84 940.457 232.36 940.457 227.968V210.616H932.429V202.768H940.457V194.488L951.833 193.12V202.768H964.145L963.029 210.616H951.833V227.968C951.833 229.864 952.265 231.22 953.129 232.036C953.993 232.852 955.373 233.26 957.269 233.26C958.613 233.26 959.837 233.104 960.941 232.792C962.069 232.456 963.077 232.036 963.965 231.532L967.745 238.768Z" fill="#008000"/>
<path d="M391.247 202.3C394.607 202.3 397.283 203.116 399.275 204.748C401.291 206.38 402.743 208.684 403.631 211.66C404.519 214.612 404.963 218.068 404.963 222.028C404.963 225.844 404.423 229.252 403.343 232.252C402.287 235.228 400.679 237.568 398.519 239.272C396.359 240.976 393.635 241.828 390.347 241.828C386.195 241.828 382.859 240.364 380.339 237.436V255.508L374.291 256.264V203.092H379.439L379.943 208.384C381.335 206.44 382.991 204.94 384.911 203.884C386.855 202.828 388.967 202.3 391.247 202.3ZM389.807 207.16C387.719 207.16 385.871 207.796 384.263 209.068C382.679 210.316 381.371 211.708 380.339 213.244V232.036C381.323 233.5 382.559 234.664 384.047 235.528C385.559 236.368 387.215 236.788 389.015 236.788C392.159 236.788 394.523 235.588 396.107 233.188C397.691 230.788 398.483 227.056 398.483 221.992C398.483 218.68 398.171 215.932 397.547 213.748C396.923 211.54 395.975 209.896 394.703 208.816C393.431 207.712 391.799 207.16 389.807 207.16ZM444.607 232.72C444.607 234.232 444.859 235.336 445.363 236.032C445.867 236.728 446.647 237.244 447.703 237.58L446.227 241.828C444.595 241.612 443.167 241.096 441.943 240.28C440.719 239.44 439.831 238.18 439.279 236.5C437.911 238.252 436.207 239.584 434.167 240.496C432.127 241.384 429.871 241.828 427.399 241.828C423.607 241.828 420.619 240.76 418.435 238.624C416.251 236.488 415.159 233.656 415.159 230.128C415.159 226.216 416.683 223.216 419.731 221.128C422.779 219.04 427.183 217.996 432.943 217.996H438.523V214.828C438.523 212.092 437.719 210.16 436.111 209.032C434.527 207.88 432.319 207.304 429.487 207.304C428.239 207.304 426.775 207.46 425.095 207.772C423.415 208.06 421.591 208.552 419.623 209.248L418.039 204.676C420.367 203.812 422.551 203.2 424.591 202.84C426.631 202.48 428.575 202.3 430.423 202.3C435.151 202.3 438.691 203.404 441.043 205.612C443.419 207.796 444.607 210.772 444.607 214.54V232.72ZM428.947 237.22C430.819 237.22 432.607 236.752 434.311 235.816C436.015 234.856 437.419 233.536 438.523 231.856V222.1H433.051C428.875 222.1 425.923 222.82 424.195 224.26C422.491 225.7 421.639 227.632 421.639 230.056C421.639 232.408 422.239 234.196 423.439 235.42C424.663 236.62 426.499 237.22 428.947 237.22ZM477.77 236.608C479.666 236.608 481.43 236.296 483.062 235.672C484.718 235.048 486.242 234.256 487.634 233.296L490.586 237.256C488.93 238.672 486.938 239.788 484.61 240.604C482.282 241.42 480.002 241.828 477.77 241.828C474.002 241.828 470.786 241.024 468.122 239.416C465.482 237.784 463.466 235.504 462.074 232.576C460.682 229.624 459.986 226.168 459.986 222.208C459.986 218.416 460.682 215.02 462.074 212.02C463.49 208.996 465.518 206.62 468.158 204.892C470.822 203.164 474.05 202.3 477.842 202.3C480.266 202.3 482.534 202.672 484.646 203.416C486.782 204.136 488.738 205.228 490.514 206.692L487.562 210.724C485.954 209.596 484.334 208.756 482.702 208.204C481.094 207.628 479.45 207.34 477.77 207.34C474.506 207.34 471.818 208.564 469.706 211.012C467.594 213.46 466.538 217.192 466.538 222.208C466.538 225.568 467.018 228.316 467.978 230.452C468.962 232.564 470.294 234.124 471.974 235.132C473.678 236.116 475.61 236.608 477.77 236.608ZM535.558 203.092L518.494 220.156L537.538 241H529.582L510.934 220.3L527.71 203.092H535.558ZM510.25 187.072V241H504.202V187.828L510.25 187.072ZM574.122 232.72C574.122 234.232 574.374 235.336 574.878 236.032C575.382 236.728 576.162 237.244 577.218 237.58L575.742 241.828C574.11 241.612 572.682 241.096 571.458 240.28C570.234 239.44 569.346 238.18 568.794 236.5C567.426 238.252 565.722 239.584 563.682 240.496C561.642 241.384 559.386 241.828 556.914 241.828C553.122 241.828 550.134 240.76 547.95 238.624C545.766 236.488 544.674 233.656 544.674 230.128C544.674 226.216 546.198 223.216 549.246 221.128C552.294 219.04 556.698 217.996 562.458 217.996H568.038V214.828C568.038 212.092 567.234 210.16 565.626 209.032C564.042 207.88 561.834 207.304 559.002 207.304C557.754 207.304 556.29 207.46 554.61 207.772C552.93 208.06 551.106 208.552 549.138 209.248L547.554 204.676C549.882 203.812 552.066 203.2 554.106 202.84C556.146 202.48 558.09 202.3 559.938 202.3C564.666 202.3 568.206 203.404 570.558 205.612C572.934 207.796 574.122 210.772 574.122 214.54V232.72ZM558.462 237.22C560.334 237.22 562.122 236.752 563.826 235.816C565.53 234.856 566.934 233.536 568.038 231.856V222.1H562.566C558.39 222.1 555.438 222.82 553.71 224.26C552.006 225.7 551.154 227.632 551.154 230.056C551.154 232.408 551.754 234.196 552.954 235.42C554.178 236.62 556.014 237.22 558.462 237.22ZM620.966 199.06L622.838 204.748C621.23 205.252 619.514 205.564 617.69 205.684C615.866 205.804 613.886 205.864 611.75 205.864C613.934 206.872 615.578 208.18 616.682 209.788C617.786 211.372 618.338 213.244 618.338 215.404C618.338 217.9 617.774 220.12 616.646 222.064C615.518 224.008 613.886 225.532 611.75 226.636C609.638 227.74 607.082 228.292 604.082 228.292C602.81 228.292 601.742 228.232 600.878 228.112C600.038 227.992 599.222 227.812 598.43 227.572C597.854 227.956 597.374 228.484 596.99 229.156C596.63 229.828 596.45 230.524 596.45 231.244C596.45 232.156 596.81 232.912 597.53 233.512C598.25 234.112 599.582 234.412 601.526 234.412H608.366C610.91 234.412 613.19 234.868 615.206 235.78C617.246 236.692 618.842 237.916 619.994 239.452C621.17 240.988 621.758 242.74 621.758 244.708C621.758 248.428 620.174 251.284 617.006 253.276C613.862 255.268 609.41 256.264 603.65 256.264C599.618 256.264 596.438 255.844 594.11 255.004C591.782 254.188 590.114 252.928 589.106 251.224C588.122 249.544 587.63 247.42 587.63 244.852H593.102C593.102 246.316 593.39 247.528 593.966 248.488C594.542 249.448 595.586 250.156 597.098 250.612C598.61 251.092 600.782 251.332 603.614 251.332C606.398 251.332 608.666 251.092 610.418 250.612C612.194 250.156 613.502 249.46 614.342 248.524C615.206 247.612 615.638 246.472 615.638 245.104C615.638 243.304 614.822 241.948 613.19 241.036C611.558 240.124 609.518 239.668 607.07 239.668H600.302C597.038 239.668 594.626 238.948 593.066 237.508C591.53 236.068 590.762 234.412 590.762 232.54C590.762 231.316 591.11 230.128 591.806 228.976C592.526 227.824 593.57 226.804 594.938 225.916C592.754 224.764 591.146 223.336 590.114 221.632C589.082 219.928 588.566 217.864 588.566 215.44C588.566 212.872 589.202 210.604 590.474 208.636C591.746 206.644 593.522 205.084 595.802 203.956C598.082 202.828 600.71 202.264 603.686 202.264C606.878 202.24 609.47 202.108 611.462 201.868C613.454 201.604 615.158 201.232 616.574 200.752C618.014 200.272 619.478 199.708 620.966 199.06ZM603.686 206.692C600.638 206.692 598.382 207.52 596.918 209.176C595.478 210.808 594.758 212.896 594.758 215.44C594.758 218.008 595.502 220.12 596.99 221.776C598.478 223.432 600.758 224.26 603.83 224.26C606.518 224.26 608.558 223.48 609.95 221.92C611.366 220.36 612.074 218.188 612.074 215.404C612.074 212.548 611.366 210.388 609.95 208.924C608.558 207.436 606.47 206.692 603.686 206.692ZM638.074 224.188C638.194 227.116 638.758 229.516 639.766 231.388C640.774 233.236 642.106 234.604 643.762 235.492C645.418 236.356 647.218 236.788 649.162 236.788C651.106 236.788 652.858 236.5 654.418 235.924C656.002 235.348 657.622 234.496 659.278 233.368L662.122 237.364C660.346 238.756 658.318 239.848 656.038 240.64C653.782 241.432 651.466 241.828 649.09 241.828C645.418 241.828 642.286 241 639.694 239.344C637.102 237.688 635.122 235.384 633.754 232.432C632.41 229.456 631.738 226.012 631.738 222.1C631.738 218.26 632.422 214.852 633.79 211.876C635.158 208.9 637.078 206.56 639.55 204.856C642.022 203.152 644.938 202.3 648.298 202.3C651.49 202.3 654.238 203.056 656.542 204.568C658.846 206.056 660.61 208.192 661.834 210.976C663.082 213.736 663.706 217.036 663.706 220.876C663.706 221.524 663.694 222.136 663.67 222.712C663.646 223.264 663.61 223.756 663.562 224.188H638.074ZM648.37 207.268C645.562 207.268 643.21 208.264 641.314 210.256C639.442 212.248 638.374 215.332 638.11 219.508H657.874C657.802 215.452 656.914 212.404 655.21 210.364C653.506 208.3 651.226 207.268 648.37 207.268Z" fill="#0000FF"/>
<path d="M1033.17 199.348H1039.29L1038.82 213.928L1052.5 209.068L1054.34 214.756L1040.41 218.86L1049.3 230.38L1044.48 233.908L1036.23 221.884L1027.99 233.908L1023.16 230.38L1032.06 218.86L1018.12 214.756L1019.96 209.068L1033.64 213.928L1033.17 199.348Z" fill="#1E1E1E"/>
</svg>
